<svg width="800" height="600" xmlns="http://www.w3.org/2000/svg">
 <g id="Layer_1">
  <title>Layer 1</title>
  <text font-style="normal" font-weight="normal" transform="matrix(4.67676 0 0 3.76227 -315.601 -261.967)" stroke="#000" xml:space="preserve" text-anchor="start" font-family="sans-serif" font-size="24" id="svg_1" y="147.47528" x="172.0111" stroke-width="0" fill="#ffffff">A</text>
  <path id="svg_2" d="m490.29153,288.27721l70.54333,0.02544l-2.28915,3.19506l-65.93801,-0.0763l-2.31618,-3.1442l0,0zm0.48478,-42.5016l69.6007,-0.0763l2.01989,3.27765l-73.66744,0.02544l2.04685,-3.22678zm-6.86874,21.29698l83.28427,-0.0763l-0.10765,3.27765l-83.12275,-0.05087l-0.05386,-3.15048zm83.35321,0.304c0,21.69881 -18.69546,39.35102 -41.67905,39.35102c-22.97367,0 -41.66564,-17.6554 -41.66564,-39.35102c0,-21.69573 18.69535,-39.34793 41.66564,-39.34793c22.9836,-0.00319 41.67905,17.6522 41.67905,39.34793zm-41.67578,-42.5016c-24.80755,0 -44.99493,19.06443 -44.99493,42.4984c0,23.43716 20.18739,42.50159 44.99493,42.50159c24.82106,0 45.00507,-19.06443 45.00507,-42.50159c0,-23.43397 -20.18401,-42.4984 -45.00507,-42.4984zm12.62684,42.5016c0,23.18699 -6.65205,39.35102 -12.62684,39.35102c-5.96803,0 -12.61998,-16.16403 -12.61998,-39.35102c0,-23.19337 6.64867,-39.34793 12.61998,-39.34793c5.97142,-0.00319 12.62684,16.15456 12.62684,39.34793zm-12.62684,-42.5016c-10.36351,0 -15.95603,21.89826 -15.95603,42.4984c0,20.60643 5.59252,42.50159 15.95603,42.50159c10.36361,0 15.96627,-21.89834 15.96627,-42.50159c-0.00338,-20.60014 -5.60266,-42.4984 -15.96627,-42.4984zm29.572,42.5016c0,21.69881 -13.27053,39.35102 -29.572,39.35102c-16.29808,0 -29.56186,-17.6554 -29.56186,-39.35102c0,-21.69573 13.26378,-39.34793 29.56186,-39.34793c16.30147,-0.00319 29.572,17.6522 29.572,39.34793zm-29.572,-42.5016c-18.13545,0 -32.89792,19.06443 -32.89792,42.4984c0,23.43716 14.76246,42.50159 32.89792,42.50159c18.14221,0 32.9014,-19.06443 32.9014,-42.50159c0,-23.43397 -14.75919,-42.4984 -32.9014,-42.4984z" stroke-width="0" stroke="#000" fill="#BBBBBB"/>
 </g>
</svg>